<svg xmlns="http://www.w3.org/2000/svg" width="1150" height="620" viewBox="0 0 1150 620">
<defs><marker id="a" markerWidth="8" markerHeight="8" refX="7" refY="4" orient="auto"><path d="M0 0L8 4L0 8Z" fill="#555"/></marker><style>text{font-family:system-ui,sans-serif;fill:#222}.h{font-size:14px;font-weight:700}.f{font-size:12px}.life{stroke:#aaa;stroke-dasharray:5 5}.msg{stroke:#555;marker-end:url(#a)}</style></defs><rect width="1150" height="620" fill="#fafaf8"/>
<g class="h" text-anchor="middle"><text x="90" y="35">GUI</text><text x="280" y="35">Requester Core</text><text x="500" y="35">Colab Server</text><text x="700" y="35">Matrix</text><text x="890" y="35">Owner Core</text><text x="1070" y="35">Provider</text></g>
<g class="life"><path d="M90 50V590"/><path d="M280 50V590"/><path d="M500 50V590"/><path d="M700 50V590"/><path d="M890 50V590"/><path d="M1070 50V590"/></g>
<g class="f"><path class="msg" d="M90 90H280"/><text x="115" y="82">1. @Agent + selected messages</text><path class="msg" d="M280 145H500"/><text x="310" y="137">2. create request</text><path class="msg" d="M500 200H700"/><text x="520" y="192">3. authorized request event</text><path class="msg" d="M700 255H280"/><text x="430" y="247">4. incremental room sync</text><path class="msg" d="M890 315H500"/><text x="625" y="307">5. explicit approval if required</text><path class="msg" d="M890 370H500"/><text x="665" y="362">6. claim short lease</text><path class="msg" d="M500 420H890"/><text x="620" y="412">7. trigger + bound receipt</text><path class="msg" d="M890 470H1070"/><text x="920" y="462">8. resume bound session</text><path class="msg" d="M1070 520H890"/><text x="930" y="512">9. progress/final summary</text><path class="msg" d="M890 565H500"/><text x="640" y="557">10. idempotent report</text></g>
</svg>
